<svg width="55" height="38" viewBox="0 0 55 38" fill="none" xmlns="http://www.w3.org/2000/svg">
<path d="M54.2857 33.7143V8.42857C54.2857 8.42857 29.5857 26.269 27.1836 27.1948C24.8221 26.3112 0 8.42857 0 8.42857V33.7143C0 37.2262 0.719286 37.9286 4.07143 37.9286H50.2143C53.6465 37.9286 54.2857 37.3119 54.2857 33.7143ZM54.2464 3.47117C54.2464 0.913095 53.5257 0 50.2143 0H4.07143C0.665 0 0 1.09571 0 3.65238L0.0407142 4.04571C0.0407142 4.04571 24.5629 21.521 27.1836 22.4762C29.9521 21.3664 54.2857 3.65238 54.2857 3.65238L54.2464 3.47117Z" fill="#FA92DD"/>
</svg>
