<svg width="55" height="51" viewBox="0 0 55 51" fill="none" xmlns="http://www.w3.org/2000/svg">
<path fill-rule="evenodd" clip-rule="evenodd" d="M27.4986 0C12.3122 0 0 11.7066 0 26.1471C0 37.6988 7.87769 47.4988 18.8065 50.954C20.1829 51.196 20.6835 50.3909 20.6835 49.6957C20.6835 49.0762 20.6596 47.4331 20.6476 45.2489C12.9976 46.8304 11.3836 41.7433 11.3836 41.7433C10.1327 38.7232 8.32968 37.92 8.32968 37.92C5.83282 36.299 8.51936 36.3305 8.51936 36.3305C11.2792 36.5162 12.7318 39.0242 12.7318 39.0242C15.1842 43.0198 19.1689 41.8633 20.735 41.1983C20.9839 39.5055 21.6961 38.3558 22.4809 37.7008C16.3752 37.0411 9.9557 34.798 9.9557 24.7794C9.9557 21.9242 11.0268 19.5899 12.7854 17.7617C12.504 17.1033 11.5585 14.4452 13.0554 10.8438C13.0554 10.8438 15.364 10.1412 20.6187 13.5261C22.8109 12.9435 25.1639 12.6525 27.5028 12.6438C29.8382 12.6532 32.1919 12.9435 34.387 13.5261C39.6381 10.1412 41.9431 10.8438 41.9431 10.8438C43.4437 14.4452 42.4988 17.1033 42.2167 17.7617C43.9796 19.5899 45.0429 21.9242 45.0429 24.7794C45.0429 34.8214 38.6142 37.0338 32.4881 37.6787C33.4738 38.4865 34.3538 40.0854 34.3538 42.525C34.3538 46.0185 34.3207 48.8375 34.3207 49.695C34.3207 50.3956 34.815 51.2101 36.2112 50.9507C47.1279 47.488 55 37.6954 55 26.1471C55 11.7066 42.6878 0 27.4986 0Z" fill="#FA92DD"/>
</svg>
